<svg width="28" height="23" viewBox="0 0 28 23" fill="none" xmlns="http://www.w3.org/2000/svg">
<path d="M4.55 0.5H23.45C24.6122 0.499925 25.7304 0.936637 26.5751 1.72055C27.4199 2.50446 27.9272 3.57614 27.993 4.71575L28 4.96875V18.0312C28.0001 19.1727 27.5554 20.2709 26.7573 21.1006C25.9591 21.9302 24.8679 22.4285 23.7076 22.4931L23.45 22.5H4.55C3.38781 22.5001 2.26964 22.0634 1.42488 21.2794C0.580113 20.4955 0.0727981 19.4239 0.00700017 18.2843L9.76526e-09 18.0312V4.96875C-7.60854e-05 3.82731 0.444576 2.72911 1.24274 1.89943C2.0409 1.06975 3.13207 0.571498 4.2924 0.506875L4.55 0.5H23.45H4.55ZM25.9 7.88788L14.49 13.7866C14.3612 13.8535 14.2196 13.8932 14.0742 13.9034C13.9289 13.9136 13.783 13.894 13.6458 13.8458L13.5114 13.788L2.1 7.88925V18.0312C2.10002 18.6351 2.33124 19.2169 2.74775 19.6612C3.16426 20.1054 3.73562 20.3796 4.3484 20.4292L4.55 20.4375H23.45C24.0651 20.4374 24.6577 20.2102 25.11 19.8008C25.5623 19.3914 25.8413 18.83 25.8916 18.2279L25.9 18.0312V7.88788ZM23.45 2.5625H4.55C3.93513 2.56252 3.34276 2.78961 2.89045 3.19868C2.43815 3.60776 2.15899 4.16891 2.1084 4.77075L2.1 4.96875V5.55862L14 11.709L25.9 5.55725V4.96875C25.8999 4.36465 25.6685 3.78266 25.2517 3.3384C24.8349 2.89414 24.2632 2.62011 23.6502 2.57075L23.45 2.5625Z" fill="#DC0000"/>
</svg>
