<svg width="51" height="50" viewBox="0 0 51 50" fill="none" xmlns="http://www.w3.org/2000/svg">
<circle cx="25.8906" cy="25" r="25" fill="black"/>
<path d="M29.0868 19.6157H16.7441V32.9403H20.1795V28.6053H26.7622L29.7657 32.9403H33.6124L30.3005 28.5854C31.3291 28.4256 32.0696 28.046 32.5222 27.4467C32.9747 26.8474 33.201 25.8885 33.201 24.6099V23.6111C33.201 22.8519 33.1188 22.2527 32.9747 21.7931C32.8307 21.3337 32.5839 20.9341 32.2342 20.5746C31.8639 20.2349 31.4525 19.9952 30.9588 19.8354C30.4651 19.6956 29.8479 19.6157 29.0868 19.6157ZM28.5314 25.6687H20.1795V22.5523H28.5314C29.0045 22.5523 29.3337 22.6322 29.4983 22.772C29.6628 22.9118 29.7657 23.1716 29.7657 23.5511V24.6699C29.7657 25.0695 29.6628 25.3291 29.4983 25.4689C29.3337 25.6087 29.0045 25.6687 28.5314 25.6687Z" fill="white"/>
<path d="M36.9686 18.9514C38.2524 18.9514 39.2938 17.907 39.2938 16.6186C39.2938 15.3302 38.2524 14.2857 36.9686 14.2857C35.684 14.2857 34.6426 15.3302 34.6426 16.6186C34.6426 17.907 35.684 18.9514 36.9686 18.9514Z" fill="#F41240"/>
</svg>
